<svg width="32" height="32" viewBox="0 0 32 32" fill="none" xmlns="http://www.w3.org/2000/svg">
<path d="M23.9034 0H8.09673C3.62504 0 0 3.62501 0 8.09668V23.9033C0 28.375 3.62504 32 8.09673 32H23.9034C28.3751 32 32.0002 28.375 32.0002 23.9033V8.09668C32.0002 3.62501 28.3751 0 23.9034 0Z" fill="#00DDB3"/>
<path d="M24.321 7.16711C18.8126 7.16711 16.7714 11.1001 15.1301 14.2597L14.0579 16.2811C12.3199 19.6318 11.0214 21.6686 7.67505 21.6686C7.4673 21.6686 7.26157 21.7096 7.06964 21.7891C6.8777 21.8686 6.70329 21.9851 6.55638 22.132C6.40948 22.2789 6.29289 22.4533 6.21339 22.6452C6.13389 22.8371 6.09302 23.0429 6.09302 23.2506V23.2506C6.0936 23.67 6.26047 24.072 6.55703 24.3686C6.85358 24.6652 7.25566 24.832 7.67505 24.8326V24.8326C13.1856 24.8326 15.2268 20.8996 16.8681 17.74L17.9382 15.7186C19.6784 12.3679 20.9769 10.3311 24.321 10.3311C24.529 10.3314 24.7349 10.2907 24.9271 10.2113C25.1193 10.1319 25.294 10.0154 25.4411 9.86851C25.5882 9.72158 25.705 9.54708 25.7846 9.35501C25.8643 9.16293 25.9052 8.95703 25.9052 8.7491V8.7491C25.9046 8.32933 25.7375 7.92695 25.4405 7.63034C25.1434 7.33372 24.7408 7.16711 24.321 7.16711V7.16711Z" fill="white"/>
</svg>
