<svg width="126" height="20" viewBox="0 0 126 20" fill="none" xmlns="http://www.w3.org/2000/svg">
<path d="M89.3697 5.2782H85.4851V18.9316H89.3697V5.2782Z" fill="black"/>
<path d="M89.3697 0.77832H85.4851V3.79727H89.3697V0.77832Z" fill="black"/>
<path d="M4.64979 0.77832H0.589355V18.9316H12.9881V15.4512H4.64979V0.77832Z" fill="black"/>
<path d="M21.0124 4.14221C16.6905 4.14221 13.2695 7.47756 13.2695 11.6808C13.2695 15.884 16.6905 19.2282 21.0124 19.2282C25.3343 19.2282 28.784 15.8928 28.784 11.6874C28.784 7.48195 25.3607 4.14221 21.0124 4.14221ZM21.0124 15.6248C18.8372 15.6248 17.2135 13.9725 17.2135 11.6698C17.2135 9.36714 18.8372 7.72803 21.0124 7.72803C23.1877 7.72803 24.8114 9.40889 24.8114 11.6698C24.8114 13.9307 23.1877 15.6248 21.0124 15.6248Z" fill="black"/>
<path d="M45.0762 15.8576C44.3797 15.8576 43.7711 15.4511 43.7711 14.2053V8.40689H47.4755V5.27808H43.7711V1.3429H39.8864V5.27808H34.7845V1.3429H30.8998V5.27808H28.7839V8.40689H30.8998V14.2624C30.8998 17.5385 32.4665 19.2215 35.3646 19.2215C36.6733 19.2241 37.9538 18.842 39.0471 18.1229L37.9485 15.2534C37.3984 15.6252 36.7553 15.836 36.0918 15.862C35.3953 15.862 34.7867 15.4555 34.7867 14.2097V8.40689H39.8886V14.2624C39.8886 17.5385 41.453 19.2215 44.3533 19.2215C45.6619 19.2237 46.9424 18.8417 48.0359 18.1229L46.9373 15.2534C46.3857 15.625 45.7409 15.8343 45.0762 15.8576Z" fill="black"/>
<path d="M69.6365 10.6591C69.0433 6.58334 65.4903 3.70061 61.5859 4.26968C60.604 4.40373 59.6588 4.73248 58.8056 5.23666C57.9524 5.74084 57.2084 6.41029 56.6174 7.20577C56.0264 8.00124 55.6001 8.90672 55.3637 9.86911C55.1272 10.8315 55.0853 11.8314 55.2404 12.8102C55.9281 17.5452 59.9995 19.738 64.1874 19.1271C66.0841 18.8605 67.8606 18.0422 69.2959 16.7739L67.459 14.2274C66.4105 15.1337 65.1227 15.7181 63.7502 15.9105C61.8562 16.1851 60.083 15.471 59.3359 13.5638L69.7508 12.0478C69.7384 11.5831 69.7002 11.1195 69.6365 10.6591ZM58.9053 11.0173C59.0151 9.15626 60.2763 7.74126 61.9396 7.50177C62.7848 7.37035 63.6488 7.55154 64.37 8.01141C65.0911 8.47128 65.6199 9.17828 65.8573 9.99998L58.9053 11.0173Z" fill="black"/>
<path d="M111.807 10.6591C111.214 6.58334 107.659 3.70061 103.757 4.26968C102.775 4.40344 101.829 4.73201 100.976 5.23611C100.123 5.7402 99.3788 6.40966 98.7877 7.2052C98.1966 8.00075 97.7704 8.90635 97.5341 9.86885C97.2977 10.8314 97.256 11.8314 97.4113 12.8102C98.0991 17.5452 102.168 19.738 106.358 19.1271C108.254 18.8605 110.03 18.0421 111.465 16.7739L109.63 14.2274C108.581 15.1337 107.292 15.7181 105.919 15.9105C104.025 16.1851 102.252 15.471 101.505 13.5638L111.922 12.0478C111.908 11.5832 111.87 11.1197 111.807 10.6591ZM101.076 11.0173C101.186 9.15626 102.445 7.74126 104.111 7.50177C104.955 7.36974 105.818 7.55083 106.538 8.01094C107.258 8.47106 107.785 9.17846 108.02 9.99998L101.076 11.0173Z" fill="black"/>
<path d="M95.7482 0.77832H91.8635V18.9294H95.7482V0.77832Z" fill="black"/>
<path d="M119.852 9.85491C118.518 9.56488 117.301 9.30341 117.301 8.49264C117.301 7.88402 118.142 7.47754 119.041 7.47754C120.444 7.49981 121.824 7.84728 123.071 8.49264L124.376 5.59233C122.754 4.60056 120.882 4.09709 118.981 4.14219C116.257 4.14219 113.357 5.70878 113.357 8.66621C113.357 11.4501 115.705 12.4015 118.577 13.1595C119.823 13.5088 121.071 13.711 121.071 14.5811C121.071 15.4512 119.592 15.7983 118.691 15.7983C117.051 15.8303 115.451 15.2861 114.17 14.2603L112.777 17.2507C113.59 18.0043 115.589 19.2281 118.691 19.2281C121.39 19.2281 125.013 18.0395 125.013 14.4712C125.013 11.5072 122.326 10.4394 119.852 9.85491Z" fill="black"/>
<path d="M53.4829 5.2782H49.5981V18.9316H53.4829V5.2782Z" fill="black"/>
<path d="M53.4829 0.77832H49.5981V3.79727H53.4829V0.77832Z" fill="black"/>
<path d="M71.291 18.9316H75.3427V11.5138H82.2133V8.07082H75.3427V4.2521H83.6899V0.77832H71.291V18.9316Z" fill="black"/>
</svg>
