<svg xmlns="http://www.w3.org/2000/svg" width="71" height="72" viewBox="0 0 71 72" fill="none"><path d="M10.0616 32.934H18.2987C18.6312 32.9337 18.9499 32.8015 19.185 32.5665C19.4201 32.3314 19.5524 32.0128 19.5529 31.6803V28.8955C19.5529 28.6673 19.4622 28.4484 19.3008 28.2869C19.1394 28.1255 18.9205 28.0349 18.6922 28.0349C18.4639 28.0349 18.245 28.1255 18.0836 28.2869C17.9222 28.4484 17.8316 28.6673 17.8316 28.8955V31.2127H10.5287V23.9215H14.1801C14.4083 23.9215 14.6272 23.8308 14.7887 23.6694C14.9501 23.508 15.0407 23.2891 15.0407 23.0609C15.0407 22.8326 14.9501 22.6137 14.7887 22.4523C14.6272 22.2909 14.4083 22.2002 14.1801 22.2002H10.0616C9.72911 22.2005 9.41036 22.3327 9.17524 22.5677C8.94013 22.8027 8.80785 23.1214 8.80743 23.4539V31.6803C8.80789 32.0128 8.94018 32.3314 9.17529 32.5665C9.41039 32.8015 9.72912 32.9337 10.0616 32.934Z" fill="white"></path><path d="M20.2637 21.7173C20.1768 21.645 20.0766 21.5905 19.9687 21.557C19.8607 21.5234 19.7472 21.5115 19.6347 21.5218C19.5221 21.5321 19.4127 21.5645 19.3127 21.6171C19.2126 21.6697 19.1239 21.7414 19.0516 21.8283L14.946 26.7618L13.6286 25.6958C13.5409 25.6232 13.4397 25.5686 13.3308 25.5354C13.2218 25.5022 13.1074 25.4909 12.9941 25.5022C12.8807 25.5135 12.7708 25.5472 12.6706 25.6013C12.5704 25.6555 12.4819 25.7289 12.4103 25.8175C12.3387 25.9061 12.2854 26.008 12.2535 26.1173C12.2215 26.2266 12.2116 26.3412 12.2243 26.4543C12.2369 26.5675 12.2719 26.6771 12.3273 26.7766C12.3826 26.8762 12.4571 26.9638 12.5465 27.0343L14.1301 28.3155C14.3903 28.5296 14.7205 28.6398 15.0572 28.6249C15.3938 28.61 15.713 28.4711 15.9533 28.2349L15.9878 28.2018L20.3749 22.9297C20.4472 22.8428 20.5017 22.7425 20.5353 22.6345C20.5689 22.5266 20.5808 22.413 20.5705 22.3005C20.5602 22.1879 20.5278 22.0784 20.4751 21.9784C20.4225 21.8783 20.3507 21.7896 20.2637 21.7173Z" fill="white"></path><path d="M61.9915 22.8H28.408C28.1798 22.8 27.9608 22.8907 27.7994 23.0521C27.638 23.2135 27.5474 23.4324 27.5474 23.6607C27.5474 23.889 27.638 24.1079 27.7994 24.2693C27.9608 24.4307 28.1798 24.5214 28.408 24.5214H61.9915C62.2198 24.5214 62.4387 24.4307 62.6001 24.2693C62.7615 24.1079 62.8522 23.889 62.8522 23.6607C62.8522 23.4324 62.7615 23.2135 62.6001 23.0521C62.4387 22.8907 62.2198 22.8 61.9915 22.8Z" fill="white"></path><path d="M61.9915 29.9307H28.408C28.1798 29.9307 27.9608 30.0213 27.7994 30.1827C27.638 30.3442 27.5474 30.5631 27.5474 30.7913C27.5474 31.0196 27.638 31.2385 27.7994 31.3999C27.9608 31.5613 28.1798 31.652 28.408 31.652H61.9915C62.2198 31.652 62.4387 31.5613 62.6001 31.3999C62.7615 31.2385 62.8522 31.0196 62.8522 30.7913C62.8522 30.5631 62.7615 30.3442 62.6001 30.1827C62.4387 30.0213 62.2198 29.9307 61.9915 29.9307Z" fill="white"></path><path d="M18.6922 46.2762C18.4639 46.2762 18.245 46.3669 18.0836 46.5283C17.9222 46.6897 17.8316 46.9086 17.8316 47.1369V49.4543H10.5287V42.1628H14.1801C14.4083 42.1628 14.6272 42.0722 14.7887 41.9108C14.9501 41.7494 15.0407 41.5304 15.0407 41.3022C15.0407 41.0739 14.9501 40.855 14.7887 40.6936C14.6272 40.5322 14.4083 40.4415 14.1801 40.4415H10.0616C9.72912 40.4419 9.41039 40.5741 9.17529 40.8091C8.94018 41.0441 8.80789 41.3628 8.80743 41.6952V49.9217C8.80785 50.2541 8.94012 50.5728 9.17524 50.8079C9.41035 51.0429 9.72909 51.1751 10.0616 51.1755H18.2987C18.6312 51.1751 18.95 51.0429 19.1851 50.8079C19.4202 50.5728 19.5524 50.2541 19.5529 49.9217V47.1369C19.5529 46.9086 19.4622 46.6897 19.3008 46.5283C19.1394 46.3669 18.9205 46.2762 18.6922 46.2762Z" fill="white"></path><path d="M20.2638 39.9583C20.1769 39.886 20.0766 39.8316 19.9687 39.798C19.8607 39.7645 19.7473 39.7526 19.6347 39.7629C19.5221 39.7732 19.4127 39.8056 19.3127 39.8582C19.2127 39.9108 19.124 39.9826 19.0517 40.0695L14.9465 45.0028L13.6291 43.937C13.5414 43.8645 13.4402 43.8101 13.3314 43.777C13.2225 43.7438 13.1082 43.7326 12.9949 43.7439C12.8817 43.7553 12.7719 43.7889 12.6717 43.843C12.5716 43.8971 12.4832 43.9705 12.4116 44.0589C12.3401 44.1474 12.2867 44.2491 12.2547 44.3583C12.2228 44.4675 12.2127 44.582 12.2253 44.6951C12.2378 44.8082 12.2726 44.9177 12.3278 45.0172C12.3829 45.1168 12.4572 45.2044 12.5464 45.275L14.13 46.5563C14.3902 46.7703 14.7204 46.8805 15.057 46.8656C15.3936 46.8508 15.7128 46.7119 15.9532 46.4758L15.9877 46.4425L20.3748 41.1704C20.4471 41.0835 20.5016 40.9833 20.5351 40.8753C20.5687 40.7674 20.5806 40.6539 20.5703 40.5414C20.56 40.4288 20.5276 40.3194 20.475 40.2194C20.4224 40.1193 20.3506 40.0306 20.2638 39.9583Z" fill="white"></path><path d="M61.9915 41.0416H54.999C54.7707 41.0416 54.5518 41.1323 54.3904 41.2937C54.229 41.4551 54.1383 41.674 54.1383 41.9023C54.1383 42.1305 54.229 42.3495 54.3904 42.5109C54.5518 42.6723 54.7707 42.7629 54.999 42.7629H61.9915C62.2198 42.7629 62.4387 42.6723 62.6001 42.5109C62.7615 42.3495 62.8522 42.1305 62.8522 41.9023C62.8522 41.674 62.7615 41.4551 62.6001 41.2937C62.4387 41.1323 62.2198 41.0416 61.9915 41.0416Z" fill="white"></path><path d="M39.3153 41.0416H28.408C28.1798 41.0416 27.9608 41.1323 27.7994 41.2937C27.638 41.4551 27.5474 41.674 27.5474 41.9023C27.5474 42.1305 27.638 42.3495 27.7994 42.5109C27.9608 42.6723 28.1798 42.7629 28.408 42.7629H39.3153C39.5435 42.7629 39.7624 42.6723 39.9238 42.5109C40.0852 42.3495 40.1759 42.1305 40.1759 41.9023C40.1759 41.674 40.0852 41.4551 39.9238 41.2937C39.7624 41.1323 39.5435 41.0416 39.3153 41.0416Z" fill="white"></path><path d="M31.3476 48.1722H28.408C28.1798 48.1722 27.9608 48.2629 27.7994 48.4243C27.638 48.5857 27.5474 48.8046 27.5474 49.0329C27.5474 49.2612 27.638 49.4801 27.7994 49.6415C27.9608 49.8029 28.1798 49.8936 28.408 49.8936H31.3476C31.5758 49.8936 31.7948 49.8029 31.9562 49.6415C32.1176 49.4801 32.2082 49.2612 32.2082 49.0329C32.2082 48.8046 32.1176 48.5857 31.9562 48.4243C31.7948 48.2629 31.5758 48.1722 31.3476 48.1722Z" fill="white"></path><path d="M66.3326 0.927612H4.26099C3.21007 0.928713 2.20249 1.34664 1.45931 2.08971C0.716141 2.83277 0.298067 3.84029 0.296814 4.89122V56.3297C0.29776 57.3797 0.714914 58.3865 1.45686 59.1294C2.1988 59.8724 3.20501 60.2909 4.25497 60.2932L37.0799 60.5254L38.7427 67.0595C38.7456 67.0712 38.7489 67.0828 38.7523 67.0944C39.1283 68.3711 39.9089 69.4911 40.9764 70.2859C42.0439 71.0807 43.3407 71.5073 44.6716 71.5014H56.6719C58.3107 71.4992 59.8817 70.8471 61.0403 69.688C62.1989 68.529 62.8505 66.9578 62.8521 65.319V60.485L66.3577 60.2938C67.4043 60.286 68.4054 59.8652 69.1432 59.1228C69.8809 58.3805 70.2956 57.3768 70.2968 56.3302V4.89122C70.2956 3.84029 69.8775 2.83277 69.1343 2.08971C68.3911 1.34664 67.3836 0.928713 66.3326 0.927612ZM4.26099 2.64892H66.3326C66.9272 2.64949 67.4973 2.8859 67.9177 3.30627C68.3382 3.72664 68.5748 4.29665 68.5755 4.89122V13.6052H2.01813V4.89122C2.01885 4.29665 2.2554 3.72664 2.67588 3.30627C3.09636 2.8859 3.66642 2.64949 4.26099 2.64892ZM61.1308 65.319C61.1297 66.5014 60.6596 67.6351 59.8237 68.4714C58.9878 69.3077 57.8543 69.7784 56.6719 69.7801H44.6716C43.7144 69.7843 42.7815 69.4785 42.0126 68.9083C41.2437 68.3381 40.6802 67.5342 40.4062 66.617L38.5845 59.4577C38.155 57.7718 37.5821 56.1258 36.8721 54.5376L36.7312 54.2034C37.6484 54.2033 38.5518 54.426 39.3638 54.8523C40.1759 55.2785 40.8723 55.8956 41.3931 56.6505L42.8732 58.7948V61.9911C42.8732 62.2194 42.9638 62.4383 43.1252 62.5997C43.2866 62.7611 43.5056 62.8518 43.7338 62.8518C43.9621 62.8518 44.181 62.7611 44.3424 62.5997C44.5038 62.4383 44.5945 62.2194 44.5945 61.9911V38.5998C44.5945 38.1704 44.765 37.7587 45.0686 37.4551C45.3722 37.1515 45.784 36.9809 46.2134 36.9809C46.6427 36.9809 47.0545 37.1515 47.3581 37.4551C47.6617 37.7587 47.8323 38.1704 47.8323 38.5998V53.8774C47.8323 53.9615 47.8447 54.0451 47.869 54.1256V57.6341C47.869 57.8623 47.9597 58.0812 48.1211 58.2426C48.2825 58.404 48.5014 58.4947 48.7296 58.4947C48.9579 58.4947 49.1768 58.404 49.3382 58.2426C49.4996 58.0812 49.5903 57.8623 49.5903 57.6341V52.8272C49.5903 52.4867 49.7256 52.1601 49.9663 51.9194C50.2071 51.6786 50.5336 51.5434 50.8741 51.5434C51.2146 51.5434 51.5411 51.6786 51.7819 51.9194C52.0227 52.1601 52.1579 52.4867 52.1579 52.8272V53.8026C52.1357 53.9528 52.1245 54.1044 52.1244 54.2563V57.6346C52.1244 57.8629 52.215 58.0818 52.3764 58.2432C52.5378 58.4046 52.7567 58.4953 52.985 58.4953H53.0018C53.0018 58.4953 53.0128 58.4953 53.0186 58.4953C53.2468 58.4953 53.4657 58.4046 53.6271 58.2432C53.7886 58.0818 53.8792 57.8629 53.8792 57.6346V53.9565C53.9524 53.6238 54.146 53.3299 54.4228 53.1313C54.6995 52.9327 55.0399 52.8433 55.3785 52.8805C55.7171 52.9176 56.0301 53.0785 56.2572 53.3324C56.4844 53.5862 56.6097 53.9151 56.6091 54.2557V58.5267C56.6091 58.755 56.6998 58.9739 56.8612 59.1353C57.0226 59.2967 57.2415 59.3874 57.4697 59.3874C57.698 59.3874 57.9169 59.2967 58.0783 59.1353C58.2397 58.9739 58.3304 58.755 58.3304 58.5267V55.6046C58.3285 55.4196 58.3634 55.236 58.4329 55.0645C58.5024 54.893 58.6052 54.737 58.7354 54.6054C58.8656 54.4739 59.0206 54.3695 59.1914 54.2983C59.3622 54.227 59.5454 54.1903 59.7305 54.1903C59.9155 54.1903 60.0988 54.227 60.2696 54.2983C60.4403 54.3695 60.5953 54.4739 60.7255 54.6054C60.8557 54.737 60.9585 54.893 61.0281 55.0645C61.0976 55.236 61.1324 55.4196 61.1305 55.6046L61.1308 65.319ZM66.3329 58.573C66.3173 58.573 66.3016 58.573 66.286 58.5745L62.8521 58.761V55.6052C62.8529 55.0454 62.7029 54.4957 62.4179 54.0138C62.1329 53.5319 61.7235 53.1356 61.2326 52.8665C60.7417 52.5974 60.1874 52.4654 59.6279 52.4844C59.0683 52.5034 58.5243 52.6726 58.0527 52.9743C57.8718 52.5744 57.6081 52.2175 57.2789 51.9271C56.9498 51.6368 56.5627 51.4197 56.1433 51.2901C55.724 51.1606 55.2819 51.1216 54.8463 51.1757C54.4107 51.2298 53.9916 51.3758 53.6167 51.604C53.4535 51.2347 53.2173 50.9022 52.9222 50.6266C52.6271 50.351 52.2793 50.138 51.8997 50.0004C51.5201 49.8628 51.1165 49.8035 50.7134 49.826C50.3102 49.8485 49.9158 49.9523 49.5539 50.1313V38.5998C49.5539 37.7139 49.2019 36.8643 48.5755 36.2379C47.9491 35.6115 47.0995 35.2596 46.2137 35.2596C45.3278 35.2596 44.4782 35.6115 43.8518 36.2379C43.2254 36.8643 42.8735 37.7139 42.8735 38.5998V55.7646L42.81 55.6728C42.1309 54.6884 41.2229 53.8838 40.164 53.328C39.1051 52.7722 37.9271 52.4819 36.7312 52.482C36.4431 52.4821 36.1595 52.5542 35.9063 52.6919C35.6531 52.8296 35.4384 53.0284 35.2817 53.2702C35.1251 53.5121 35.0314 53.7893 35.0092 54.0766C34.987 54.3639 35.0371 54.6522 35.1548 54.9153L35.2998 55.2397C35.8166 56.3966 36.2565 57.5864 36.6166 58.8013L4.26042 58.5718C3.66607 58.571 3.09626 58.3347 2.67593 57.9145C2.25559 57.4943 2.01904 56.9245 2.01813 56.3302V15.3265H68.5755V56.3302C68.5747 56.9247 68.3382 57.4947 67.9177 57.915C67.4972 58.3354 66.9272 58.5718 66.3326 58.5723L66.3329 58.573Z" fill="white"></path><path d="M7.49785 11.3174C8.15036 11.3174 8.78823 11.1239 9.33077 10.7613C9.87332 10.3988 10.2962 9.88356 10.5459 9.28072C10.7956 8.67787 10.8609 8.01452 10.7336 7.37454C10.6063 6.73456 10.2921 6.1467 9.83072 5.6853C9.36932 5.2239 8.78146 4.90969 8.14148 4.78239C7.50151 4.65509 6.83815 4.72042 6.23531 4.97013C5.63246 5.21984 5.1172 5.6427 4.75468 6.18525C4.39216 6.7278 4.19867 7.36566 4.19867 8.01818C4.19958 8.89289 4.54746 9.73152 5.16598 10.35C5.7845 10.9686 6.62313 11.3164 7.49785 11.3174ZM7.49785 6.44145C7.80992 6.44145 8.11498 6.534 8.37446 6.70737C8.63394 6.88075 8.83618 7.12718 8.95561 7.4155C9.07503 7.70382 9.10628 8.02107 9.0454 8.32715C8.98451 8.63323 8.83424 8.91438 8.61357 9.13505C8.3929 9.35571 8.11175 9.50599 7.80567 9.56687C7.4996 9.62776 7.18234 9.59651 6.89402 9.47708C6.60571 9.35766 6.35928 9.15542 6.1859 8.89594C6.01252 8.63646 5.91998 8.3314 5.91998 8.01932C5.92036 7.60096 6.08672 7.19985 6.38255 6.90402C6.67837 6.6082 7.07949 6.44183 7.49785 6.44145Z" fill="white"></path><path d="M16.195 11.3174C16.8475 11.3174 17.4854 11.1239 18.0279 10.7613C18.5705 10.3988 18.9933 9.88356 19.243 9.28072C19.4927 8.67787 19.5581 8.01452 19.4308 7.37454C19.3035 6.73456 18.9893 6.1467 18.5279 5.6853C18.0665 5.2239 17.4786 4.90969 16.8386 4.78239C16.1987 4.65509 15.5353 4.72042 14.9325 4.97013C14.3296 5.21984 13.8143 5.6427 13.4518 6.18525C13.0893 6.7278 12.8958 7.36566 12.8958 8.01818C12.8967 8.89289 13.2446 9.73152 13.8631 10.35C14.4816 10.9686 15.3203 11.3164 16.195 11.3174ZM16.195 6.44145C16.5071 6.44145 16.8121 6.534 17.0716 6.70737C17.3311 6.88075 17.5333 7.12718 17.6528 7.4155C17.7722 7.70382 17.8034 8.02107 17.7425 8.32715C17.6817 8.63323 17.5314 8.91438 17.3107 9.13505C17.09 9.35571 16.8089 9.50599 16.5028 9.56687C16.1967 9.62776 15.8795 9.59651 15.5912 9.47708C15.3029 9.35766 15.0564 9.15542 14.883 8.89594C14.7097 8.63646 14.6171 8.3314 14.6171 8.01932C14.6175 7.60096 14.7839 7.19985 15.0797 6.90402C15.3755 6.6082 15.7766 6.44183 16.195 6.44145Z" fill="white"></path><path d="M24.8927 11.3174C25.5452 11.3174 26.1831 11.1239 26.7256 10.7613C27.2682 10.3988 27.691 9.88356 27.9407 9.28072C28.1904 8.67787 28.2558 8.01452 28.1285 7.37454C28.0012 6.73456 27.687 6.1467 27.2256 5.6853C26.7642 5.2239 26.1763 4.90969 25.5363 4.78239C24.8963 4.65509 24.233 4.72042 23.6301 4.97013C23.0273 5.21984 22.512 5.6427 22.1495 6.18525C21.787 6.7278 21.5935 7.36566 21.5935 8.01818C21.5944 8.89289 21.9423 9.73152 22.5608 10.35C23.1793 10.9686 24.018 11.3164 24.8927 11.3174ZM24.8927 6.44145C25.2048 6.44145 25.5098 6.534 25.7693 6.70737C26.0288 6.88075 26.231 7.12718 26.3504 7.4155C26.4699 7.70382 26.5011 8.02107 26.4402 8.32715C26.3793 8.63323 26.2291 8.91438 26.0084 9.13505C25.7877 9.35571 25.5066 9.50599 25.2005 9.56687C24.8944 9.62776 24.5772 9.59651 24.2889 9.47708C24.0005 9.35766 23.7541 9.15542 23.5807 8.89594C23.4074 8.63646 23.3148 8.3314 23.3148 8.01932C23.3152 7.60096 23.4816 7.19985 23.7774 6.90402C24.0732 6.6082 24.4743 6.44183 24.8927 6.44145Z" fill="white"></path><path d="M37.7354 8.71655H65.6971C65.9254 8.71655 66.1443 8.62587 66.3057 8.46447C66.4671 8.30307 66.5578 8.08416 66.5578 7.8559C66.5578 7.62763 66.4671 7.40872 66.3057 7.24732C66.1443 7.08592 65.9254 6.99524 65.6971 6.99524H37.7354C37.5072 6.99524 37.2882 7.08592 37.1268 7.24732C36.9654 7.40872 36.8748 7.62763 36.8748 7.8559C36.8748 8.08416 36.9654 8.30307 37.1268 8.46447C37.2882 8.62587 37.5072 8.71655 37.7354 8.71655Z" fill="white"></path></svg>