<svg xmlns="http://www.w3.org/2000/svg" width="70" height="68" viewBox="0 0 70 68" fill="none"><path d="M10.4321 28.5453C10.3576 28.5453 10.2824 28.5352 10.2072 28.5143C9.76023 28.39 9.49865 27.9259 9.62255 27.4777C12.773 16.0948 23.2087 8.14502 35.0003 8.14502C35.1753 8.14502 35.3502 8.1467 35.5245 8.15007C35.9882 8.15916 36.3566 8.54343 36.3475 9.00853C36.3388 9.47329 35.9547 9.84577 35.4919 9.83398C35.3284 9.83062 35.1645 9.82893 35.0003 9.82893C23.9602 9.82893 14.1897 17.2718 11.2404 27.9283C11.1373 28.3008 10.7998 28.5453 10.4321 28.5453Z" fill="white"></path><path d="M35 60.9694C34.6461 60.9694 34.2935 60.9623 33.943 60.9482C33.4799 60.9297 33.1189 60.538 33.1374 60.0736C33.1555 59.6085 33.5511 59.2481 34.0094 59.2656C34.3379 59.2787 34.6683 59.2855 35 59.2855C46.465 59.2855 56.5877 51.1508 59.0696 39.9427C59.17 39.4887 59.6189 39.2028 60.0709 39.3035C60.5236 39.4042 60.809 39.8541 60.7082 40.3078C59.4302 46.0799 56.1912 51.3229 51.5881 55.0717C46.9183 58.8753 41.0272 60.9694 35 60.9694Z" fill="white"></path><path d="M19.4988 28.745C8.74704 28.745 0 37.5182 0 48.3013C0 52.0702 1.06614 55.7132 3.08693 58.8645L0.448618 66.2811C0.339486 66.5873 0.416382 66.9294 0.645728 67.1591C0.875074 67.3895 1.21557 67.4659 1.52114 67.3568L8.89983 64.7164C12.0583 66.7725 15.7134 67.8569 19.4984 67.8569C30.2501 67.8569 38.9968 59.0841 38.9968 48.301C38.9968 37.5178 30.2505 28.745 19.4988 28.745ZM19.4988 66.1737C15.9078 66.1737 12.4455 65.1061 9.48645 63.0864C9.34542 62.9901 9.18021 62.9402 9.014 62.9402C8.91897 62.9402 8.8236 62.9564 8.73193 62.9894L2.62488 65.1744L4.80887 59.0352C4.89853 58.7833 4.86361 58.5035 4.71418 58.2819C2.72831 55.3286 1.67862 51.8776 1.67862 48.3016C1.67862 38.4467 9.67248 30.4292 19.4984 30.4292C29.324 30.4292 37.3179 38.447 37.3179 48.3016C37.3179 58.1562 29.3247 66.1737 19.4988 66.1737Z" fill="white"></path><path d="M66.9132 30.6915C68.9343 27.5402 70.0001 23.8973 70.0001 20.128C70.0001 9.34454 61.2531 0.572021 50.5014 0.572021C39.7496 0.572021 31.0029 9.34487 31.0029 20.128C31.0029 30.9111 39.75 39.6843 50.5014 39.6843C54.2867 39.6843 57.9418 38.5998 61.1 36.5438L68.4786 39.1842C68.7839 39.2929 69.125 39.2168 69.3541 38.9865C69.5834 38.7565 69.6603 38.4146 69.5512 38.1085L66.9132 30.6915ZM61.2685 34.8161C61.0157 34.7252 60.7356 34.7615 60.514 34.9131C57.555 36.9328 54.0926 38.0004 50.5017 38.0004C40.6761 38.0004 32.6822 29.9826 32.6822 20.128C32.6822 10.2734 40.6761 2.25593 50.5017 2.25593C60.3276 2.25593 68.3215 10.2734 68.3215 20.128C68.3215 23.7043 67.2718 27.1553 65.2859 30.1085C65.1368 30.3301 65.1016 30.61 65.1912 30.8619L67.3752 37.0011L61.2685 34.8161Z" fill="white"></path><path d="M19.2868 61.9531C18.4407 61.9531 17.6472 61.6234 17.0518 61.0249C16.4585 60.4312 16.1307 59.636 16.1307 58.787C16.1307 57.9528 16.4497 57.1644 17.0293 56.5663C17.623 55.9496 18.4255 55.6091 19.2868 55.6091C20.133 55.6091 20.9292 55.9409 21.5283 56.543C22.126 57.1425 22.4557 57.9397 22.4557 58.7867C22.4557 59.6485 22.1162 60.4534 21.4994 61.0532C20.9027 61.6338 20.1169 61.9531 19.2868 61.9531ZM19.2868 57.2934C18.8849 57.2934 18.5115 57.4513 18.2351 57.7383C17.9601 58.0218 17.8097 58.3937 17.8097 58.787C17.8097 59.1854 17.9621 59.5569 18.2392 59.8337C18.5186 60.115 18.8899 60.2689 19.2868 60.2689C19.6784 60.2689 20.0491 60.1183 20.3305 59.8445C20.6179 59.5646 20.7768 59.1891 20.7768 58.7867C20.7768 58.3893 20.622 58.0151 20.3406 57.7329C20.0578 57.4496 19.6841 57.2934 19.2868 57.2934Z" fill="white"></path><path d="M19.5702 54.4013H18.9054C18.2442 54.4013 17.5995 54.1302 17.1367 53.6577C16.6737 53.1848 16.4151 52.5335 16.4269 51.8707C16.449 50.5946 16.6606 49.5314 17.0729 48.6204C17.4799 47.7222 18.1586 46.8361 19.1475 45.9103C19.95 45.1593 20.2559 44.7831 20.3667 44.6262C20.5057 44.4292 20.6051 44.2321 20.6626 44.0405C20.7075 43.8906 20.7609 43.6111 20.7609 43.1278C20.7609 42.59 20.6649 42.2131 20.4752 42.0084C20.4181 41.9467 20.263 41.7797 19.6814 41.7797C18.9628 41.7797 18.7563 41.9952 18.6784 42.0764C18.5111 42.2505 18.3392 42.5095 18.3305 43.1093C18.3107 44.4601 17.1989 45.5587 15.852 45.5587H15.1871C14.529 45.5587 13.8859 45.2893 13.4235 44.8198C12.9612 44.3504 12.7003 43.7024 12.7083 43.0423C12.7332 41.0236 13.4242 39.3461 14.7627 38.0562C16.081 36.7849 17.7361 36.1403 19.6817 36.1403C21.6766 36.1403 23.3203 36.8155 24.5671 38.1475C25.773 39.434 26.3844 41.1162 26.3844 43.1467C26.3844 44.481 26.1091 45.7066 25.5661 46.7893C25.054 47.8108 24.1696 48.8858 22.8627 50.076C22.817 50.1174 22.77 50.1572 22.7216 50.1952C22.504 50.3656 22.05 50.7213 22.05 51.9155C22.0494 53.2862 20.9372 54.4013 19.5702 54.4013ZM19.681 40.0958C20.5638 40.0958 21.2257 40.3463 21.7045 40.8613C22.1998 41.3968 22.4396 42.1377 22.4396 43.1275C22.4396 43.6798 22.3825 44.15 22.27 44.5248C22.1605 44.8902 21.9812 45.2516 21.7374 45.5981C21.4745 45.9709 20.9883 46.4903 20.2925 47.1416C19.4681 47.9132 18.9151 48.6245 18.6011 49.3169C18.2858 50.0134 18.1236 50.8587 18.1052 51.9007C18.1015 52.1149 18.1847 52.325 18.3345 52.4776C18.4836 52.6298 18.6918 52.7174 18.9054 52.7174H19.5702C20.0115 52.7174 20.3704 52.3577 20.3704 51.9152C20.3704 50.5586 20.8016 49.5614 21.6881 48.8669C21.7042 48.8545 21.7193 48.8417 21.7337 48.8286C22.8852 47.7805 23.6477 46.8658 24.0655 46.0326C24.4896 45.1862 24.7045 44.2153 24.7045 43.1463C24.7045 41.5584 24.2461 40.2642 23.3425 39.3C23.3425 39.3 23.3425 39.3 23.3422 39.2996C22.4258 38.3206 21.1938 37.8238 19.681 37.8238C18.1841 37.8238 16.9205 38.3105 15.9252 39.27C14.9229 40.2359 14.4054 41.5116 14.3863 43.0625C14.3836 43.2757 14.4679 43.4848 14.6173 43.6364C14.7667 43.7879 14.9739 43.8748 15.1865 43.8748H15.8513C16.2858 43.8748 16.6448 43.5202 16.6512 43.0844C16.6646 42.1791 16.9316 41.4678 17.4678 40.9084C17.993 40.3618 18.7166 40.0958 19.681 40.0958Z" fill="white"></path><path d="M58.0575 27.7132H51.9646C51.5009 27.7132 51.1251 27.3363 51.1251 26.8713C51.1251 26.4062 51.5009 26.0293 51.9646 26.0293H58.0575C58.5213 26.0293 58.897 26.4062 58.897 26.8713C58.897 27.3363 58.5209 27.7132 58.0575 27.7132Z" fill="white"></path><path d="M47.995 27.7132H40.5082C40.0445 27.7132 39.6687 27.3363 39.6687 26.8713C39.6687 26.4062 40.0445 26.0293 40.5082 26.0293H47.995C48.4587 26.0293 48.8345 26.4062 48.8345 26.8713C48.8345 27.3363 48.4587 27.7132 47.995 27.7132Z" fill="white"></path><path d="M60.4957 21.2099H57.5548C57.0911 21.2099 56.7153 20.8331 56.7153 20.368C56.7153 19.9029 57.0911 19.526 57.5548 19.526H60.4957C60.9594 19.526 61.3352 19.9029 61.3352 20.368C61.3352 20.8331 60.9594 21.2099 60.4957 21.2099Z" fill="white"></path><path d="M53.5849 21.2099H40.5082C40.0445 21.2099 39.6687 20.8331 39.6687 20.368C39.6687 19.9029 40.0445 19.526 40.5082 19.526H53.5849C54.0487 19.526 54.4244 19.9029 54.4244 20.368C54.4244 20.8331 54.0487 21.2099 53.5849 21.2099Z" fill="white"></path><path d="M57.4576 14.7061H40.5082C40.0445 14.7061 39.6687 14.3293 39.6687 13.8642C39.6687 13.3991 40.0445 13.0222 40.5082 13.0222H57.4576C57.9214 13.0222 58.2971 13.3991 58.2971 13.8642C58.2971 14.3293 57.9214 14.7061 57.4576 14.7061Z" fill="white"></path></svg>